<svg width="24" height="14" viewBox="0 0 24 14" fill="none" xmlns="http://www.w3.org/2000/svg">
<path d="M19.915 8.02776C19.527 7.53776 19.638 7.31976 19.915 6.88176C19.92 6.87676 23.123 2.45076 23.453 0.949756L23.455 0.948756C23.619 0.401756 23.455 -0.000244141 22.662 -0.000244141H20.038C19.37 -0.000244141 19.062 0.344756 18.897 0.730756C18.897 0.730756 17.561 3.92876 15.671 6.00176C15.061 6.60076 14.779 6.79276 14.446 6.79276C14.282 6.79276 14.027 6.60076 14.027 6.05376V0.948756C14.027 0.292756 13.84 -0.000244141 13.287 -0.000244141H9.161C8.742 -0.000244141 8.493 0.305756 8.493 0.590756C8.493 1.21276 9.438 1.35576 9.536 3.10576V6.90276C9.536 7.73476 9.385 7.88776 9.05 7.88776C8.158 7.88776 5.993 4.67676 4.71 1.00176C4.451 0.288756 4.198 0.000755787 3.525 0.000755787H0.9C0.151 0.000755787 0 0.345756 0 0.731756C0 1.41376 0.892 4.80476 4.148 9.28476C6.318 12.3428 9.374 13.9998 12.154 13.9998C13.825 13.9998 14.029 13.6318 14.029 12.9988C14.029 10.0768 13.878 9.80076 14.715 9.80076C15.103 9.80076 15.771 9.99276 17.331 11.4678C19.114 13.2168 19.407 13.9998 20.405 13.9998H23.029C23.777 13.9998 24.156 13.6318 23.938 12.9058C23.439 11.3788 20.067 8.23776 19.915 8.02776Z" fill="#3075F4"/>
</svg>
