<svg width="41" height="20" viewBox="0 0 41 20" fill="none" xmlns="http://www.w3.org/2000/svg">
<g clip-path="url(#clip0_54_25)">
<path d="M2.77466 1.53429C3.28969 2.3712 2.77466 18.8733 2.77466 18.8733H0.542905C0.542905 18.8733 0.864793 2.45703 0.542905 1.53429C0.221017 0.61154 2.25964 0.697377 2.77466 1.53429Z" fill="#3075F4"/>
<path d="M7.04507 16.1481C8.13949 15.8476 9.51288 17.2854 11.0579 17.2854C13.3541 17.2854 14.6846 16.0837 14.6846 14.324C14.6846 12.6931 13.7618 11.7704 11.4228 10.8691C8.59014 9.8605 6.85194 8.40127 6.85194 5.95492C6.83048 3.25105 9.0837 1.23389 12.4528 1.23389C14.2339 1.23389 15.9507 1.66307 16.294 2.09226C16.6373 2.52144 16.4442 3.40127 15.6717 3.91629C14.8991 4.43131 13.9549 3.10084 12.367 3.10084C10.0064 3.10084 9.10516 4.51715 9.10516 5.69741C9.10516 7.32831 10.1567 8.1223 12.5601 9.04505C15.5 10.1824 16.9807 11.5987 16.9807 14.1309C16.9807 16.8133 15.0064 19.1309 10.9077 19.1309C9.23391 19.1309 6.89486 18.5515 6.48713 18.015C6.07941 17.4785 5.97211 16.427 7.04507 16.1266V16.1481Z" fill="#3075F4"/>
<path d="M23.6116 1.79197C23.8262 2.52158 23.6116 19.131 23.6116 19.131H21.3798C21.3798 19.131 20.779 2.32845 21.3798 1.79197C21.9807 1.25549 23.397 1.06236 23.6116 1.79197Z" fill="#3075F4"/>
<path d="M29.8133 1.98508C29.8133 1.23401 32.3026 1.64173 34.1051 1.64173C36.3154 1.64173 37.9463 2.15675 38.9764 3.0795C39.9206 3.89495 40.5 5.16105 40.5 6.70611C40.5 8.25117 40.0279 9.51727 39.1695 10.4186C37.9893 11.6847 36.0579 12.3284 33.8691 12.3284C33.2039 12.3284 32.5815 12.307 32.0665 12.1782V19.131H29.8348V1.98508H29.8133ZM32.0451 10.3542C32.5386 10.4829 33.1609 10.5259 33.8905 10.5259C36.5944 10.5259 38.2468 9.21684 38.2468 6.81341C38.2468 4.40997 36.6159 3.42285 34.1481 3.42285C33.1609 3.42285 32.4313 3.50868 32.0451 3.59452V10.3327V10.3542Z" fill="#3075F4"/>
</g>
<defs>
<clipPath id="clip0_54_25">
<rect width="40" height="18.2618" fill="white" transform="translate(0.5 0.869141)"/>
</clipPath>
</defs>
</svg>
